<?xml version="1.0" encoding="UTF-8"?>
<!DOCTYPE svg PUBLIC "-//W3C//DTD SVG 1.1//EN" "http://www.w3.org/Graphics/SVG/1.1/DTD/svg11.dtd">
<!-- Creator: CorelDRAW -->
<svg xmlns="http://www.w3.org/2000/svg" xml:space="preserve" width="10.8372mm" height="10.8372mm" version="1.1" style="shape-rendering:geometricPrecision; text-rendering:geometricPrecision; image-rendering:optimizeQuality; fill-rule:evenodd; clip-rule:evenodd"
viewBox="0 0 1083.72 1083.72"
 xmlns:xlink="http://www.w3.org/1999/xlink"
 xmlns:xodm="http://www.corel.com/coreldraw/odm/2003">
 <defs>
  <style type="text/css">
   <![CDATA[
    .str0 {stroke:#FEFEFE;stroke-width:17.64;stroke-miterlimit:22.9256}
    .fil0 {fill:none}
   ]]>
  </style>
 </defs>
 <g id="Слой_x0020_1">
  <metadata id="CorelCorpID_0Corel-Layer"/>
  <path class="fil0 str0" d="M541.85 3.87c299.27,0 541.87,240.87 541.87,537.99 0,128.54 -45.42,246.53 -121.17,339.04l-243.39 -571.31c-8.8,-19.63 -20.35,-35.17 -35.03,-46.63 -14.47,-11.28 -30.33,-19.83 -47.35,-25.07 -17.22,-5.45 -34.06,-8.75 -50.69,-10.3 -16.64,-1.55 -31.31,-2.14 -44.24,-1.95 -12.91,-0.19 -27.59,0.4 -44.22,1.95 -16.64,1.55 -33.47,4.85 -50.49,10.3 -17.23,5.24 -33.09,13.79 -47.56,25.07 -14.69,11.46 -26.23,27 -35.04,46.63l-243.39 571.31c-75.74,-92.51 -121.16,-210.5 -121.16,-339.04 0,-297.12 242.6,-537.99 541.86,-537.99zm206.99 1035.29c-63.78,26.2 -133.68,40.68 -206.99,40.68 -73.31,0 -143.21,-14.48 -206.98,-40.68l194.07 -527.88c0.78,-1.75 1.76,-4.09 3.13,-7.19 1.17,-3.11 2.74,-6.02 4.3,-8.55 1.76,-2.52 3.53,-3.89 5.48,-4.07 1.96,0.18 3.72,1.55 5.49,4.07 1.56,2.53 3.12,5.44 4.31,8.55 1.36,3.1 2.34,5.44 3.13,7.19l194.06 527.88z"/>
 </g>
</svg>
