<?xml version="1.0" encoding="UTF-8"?>
<!DOCTYPE svg PUBLIC "-//W3C//DTD SVG 1.1//EN" "http://www.w3.org/Graphics/SVG/1.1/DTD/svg11.dtd">
<!-- Creator: CorelDRAW -->
<svg xmlns="http://www.w3.org/2000/svg" xml:space="preserve" width="10.8372mm" height="10.8372mm" version="1.1" style="shape-rendering:geometricPrecision; text-rendering:geometricPrecision; image-rendering:optimizeQuality; fill-rule:evenodd; clip-rule:evenodd"
viewBox="0 0 1083.72 1083.72"
 xmlns:xlink="http://www.w3.org/1999/xlink"
 xmlns:xodm="http://www.corel.com/coreldraw/odm/2003">
 <defs>
  <style type="text/css">
   <![CDATA[
    .str0 {stroke:#FEFEFE;stroke-width:17.64;stroke-miterlimit:22.9256}
    .fil0 {fill:none}
   ]]>
  </style>
 </defs>
 <g id="Слой_x0020_1">
  <metadata id="CorelCorpID_0Corel-Layer"/>
  <path class="fil0 str0" d="M541.85 16.48c292.26,0 529.17,235.22 529.17,525.38 0,125.53 -44.36,240.75 -118.33,331.1l-237.68 -557.93c-8.6,-19.17 -19.87,-34.35 -34.21,-45.54 -14.14,-11.01 -29.62,-19.36 -46.25,-24.48 -16.81,-5.32 -33.26,-8.54 -49.5,-10.06 -16.25,-1.52 -30.58,-2.09 -43.2,-1.9 -12.6,-0.19 -26.94,0.38 -43.18,1.9 -16.25,1.52 -32.69,4.74 -49.31,10.06 -16.83,5.12 -32.31,13.47 -46.45,24.48 -14.34,11.19 -25.61,26.37 -34.21,45.54l-237.68 557.93c-73.97,-90.35 -118.33,-205.57 -118.33,-331.1 0,-290.16 236.92,-525.38 529.16,-525.38zm202.14 1011.02c-62.28,25.59 -130.54,39.74 -202.14,39.74 -71.59,0 -139.85,-14.15 -202.13,-39.74l189.53 -515.5c0.75,-1.71 1.72,-3.99 3.05,-7.03 1.15,-3.03 2.67,-5.87 4.2,-8.35 1.72,-2.46 3.44,-3.79 5.35,-3.97 1.92,0.18 3.64,1.51 5.36,3.97 1.52,2.48 3.05,5.32 4.21,8.35 1.33,3.04 2.28,5.32 3.05,7.03l189.52 515.5z"/>
 </g>
</svg>
